<!DOCTYPE svg PUBLIC "-//W3C//DTD SVG 1.1//EN" "http://www.w3.org/Graphics/SVG/1.1/DTD/svg11.dtd">
<!-- Uploaded to: SVG Repo, www.svgrepo.com, Transformed by: SVG Repo Mixer Tools -->
<svg height="800px" width="800px" version="1.1" id="_x32_" xmlns="http://www.w3.org/2000/svg" xmlns:xlink="http://www.w3.org/1999/xlink" viewBox="-51.2 -51.2 614.40 614.40" xml:space="preserve" fill="#21a1de">

<g id="SVGRepo_bgCarrier" stroke-width="0" transform="translate(12.800000000000011,12.800000000000011), scale(0.95)">

<rect x="-51.2" y="-51.2" width="614.40" height="614.40" rx="122.88" fill="#ffcb13" strokewidth="0"/>

</g>

<g id="SVGRepo_tracerCarrier" stroke-linecap="round" stroke-linejoin="round"/>

<g id="SVGRepo_iconCarrier"> <style type="text/css"> .st0{fill:#21a1de;} </style> <g> <path class="st0" d="M291.442,200c-117.336-32-144-45.328-96-98.664C229.09,63.953,281.02,25.313,319.208,0h-56.954 C204.63,32.25,139.122,70.984,99.442,120c-45.336,56-30.367,95.711,16,128c74.664,52,166.664,56,109.328,120 c-59.562,66.484-99.539,112.602-134.664,144h266.82c26.821-41.156,73.641-118.211,81.18-165.336 C448.77,280,413.692,233.344,291.442,200z"/> </g> </g>

</svg>